ISO-10303-21;
HEADER;
/* Generated by software containing ST-Developer
 * from STEP Tools, Inc. (www.steptools.com) 
 */
/* OPTION: using custom renumber hook */

FILE_DESCRIPTION(
/* description */ ('STEP AP242 Edition 2',
'CAx-IF Rec.Pracs.---Representation and Presentation of Product Manufa
cturing Information (PMI)---4.0---2014-10-13',
'CAx-IF Rec.Pracs.---3D Tessellated Geometry---0.4---2014-09-14','2;1',
'CAx-IF Rec.Pracs.---User Defined Attributes---1.5---2016-08-15'),
/* implementation_level */ '2;1');

FILE_NAME(
/* name */ 'Part Studio 1 - Part 1',
/* time_stamp */ '2026-09-17T22:17:38Z',
/* author */ (''),
/* organization */ (''),
/* preprocessor_version */ 'ST-DEVELOPER v20',
/* originating_system */ 'ONSHAPE BY PTC INC, 1.220',
/* authorisation */ '  ');

FILE_SCHEMA (('AP242_MANAGED_MODEL_BASED_3D_ENGINEERING_MIM_LF { 1 0 10303 442 3 1 4 }'));
ENDSEC;

DATA;
#10=SHAPE_REPRESENTATION_RELATIONSHIP('','',#147,#11);
#11=ADVANCED_BREP_SHAPE_REPRESENTATION('',(#145),#245);
#12=PLANE('',#167);
#13=PLANE('',#168);
#14=ORIENTED_EDGE('',*,*,#38,.F.);
#15=ORIENTED_EDGE('',*,*,#39,.T.);
#16=ORIENTED_EDGE('',*,*,#40,.F.);
#17=ORIENTED_EDGE('',*,*,#41,.T.);
#18=ORIENTED_EDGE('',*,*,#42,.F.);
#19=ORIENTED_EDGE('',*,*,#43,.T.);
#20=ORIENTED_EDGE('',*,*,#44,.F.);
#21=ORIENTED_EDGE('',*,*,#45,.T.);
#22=ORIENTED_EDGE('',*,*,#46,.F.);
#23=ORIENTED_EDGE('',*,*,#47,.T.);
#24=ORIENTED_EDGE('',*,*,#48,.T.);
#25=ORIENTED_EDGE('',*,*,#49,.F.);
#26=ORIENTED_EDGE('',*,*,#38,.T.);
#27=ORIENTED_EDGE('',*,*,#40,.T.);
#28=ORIENTED_EDGE('',*,*,#42,.T.);
#29=ORIENTED_EDGE('',*,*,#44,.T.);
#30=ORIENTED_EDGE('',*,*,#46,.T.);
#31=ORIENTED_EDGE('',*,*,#48,.F.);
#32=ORIENTED_EDGE('',*,*,#39,.F.);
#33=ORIENTED_EDGE('',*,*,#41,.F.);
#34=ORIENTED_EDGE('',*,*,#43,.F.);
#35=ORIENTED_EDGE('',*,*,#45,.F.);
#36=ORIENTED_EDGE('',*,*,#47,.F.);
#37=ORIENTED_EDGE('',*,*,#49,.T.);
#38=EDGE_CURVE('',#50,#50,#62,.T.);
#39=EDGE_CURVE('',#51,#51,#63,.T.);
#40=EDGE_CURVE('',#52,#52,#64,.T.);
#41=EDGE_CURVE('',#53,#53,#65,.T.);
#42=EDGE_CURVE('',#54,#54,#66,.T.);
#43=EDGE_CURVE('',#55,#55,#67,.T.);
#44=EDGE_CURVE('',#56,#56,#68,.T.);
#45=EDGE_CURVE('',#57,#57,#69,.T.);
#46=EDGE_CURVE('',#58,#58,#70,.T.);
#47=EDGE_CURVE('',#59,#59,#71,.T.);
#48=EDGE_CURVE('',#60,#60,#72,.T.);
#49=EDGE_CURVE('',#61,#61,#73,.T.);
#50=VERTEX_POINT('',#214);
#51=VERTEX_POINT('',#216);
#52=VERTEX_POINT('',#219);
#53=VERTEX_POINT('',#221);
#54=VERTEX_POINT('',#224);
#55=VERTEX_POINT('',#226);
#56=VERTEX_POINT('',#229);
#57=VERTEX_POINT('',#231);
#58=VERTEX_POINT('',#234);
#59=VERTEX_POINT('',#236);
#60=VERTEX_POINT('',#239);
#61=VERTEX_POINT('',#241);
#62=CIRCLE('',#150,0.0016);
#63=CIRCLE('',#151,0.0016);
#64=CIRCLE('',#153,0.0016);
#65=CIRCLE('',#154,0.0016);
#66=CIRCLE('',#156,0.0016);
#67=CIRCLE('',#157,0.0016);
#68=CIRCLE('',#159,0.0016);
#69=CIRCLE('',#160,0.0016);
#70=CIRCLE('',#162,0.002);
#71=CIRCLE('',#163,0.002);
#72=CIRCLE('',#165,0.01625);
#73=CIRCLE('',#166,0.01625);
#74=EDGE_LOOP('',(#14));
#75=EDGE_LOOP('',(#15));
#76=EDGE_LOOP('',(#16));
#77=EDGE_LOOP('',(#17));
#78=EDGE_LOOP('',(#18));
#79=EDGE_LOOP('',(#19));
#80=EDGE_LOOP('',(#20));
#81=EDGE_LOOP('',(#21));
#82=EDGE_LOOP('',(#22));
#83=EDGE_LOOP('',(#23));
#84=EDGE_LOOP('',(#24));
#85=EDGE_LOOP('',(#25));
#86=EDGE_LOOP('',(#26));
#87=EDGE_LOOP('',(#27));
#88=EDGE_LOOP('',(#28));
#89=EDGE_LOOP('',(#29));
#90=EDGE_LOOP('',(#30));
#91=EDGE_LOOP('',(#31));
#92=EDGE_LOOP('',(#32));
#93=EDGE_LOOP('',(#33));
#94=EDGE_LOOP('',(#34));
#95=EDGE_LOOP('',(#35));
#96=EDGE_LOOP('',(#36));
#97=EDGE_LOOP('',(#37));
#98=FACE_BOUND('',#74,.T.);
#99=FACE_BOUND('',#75,.T.);
#100=FACE_BOUND('',#76,.T.);
#101=FACE_BOUND('',#77,.T.);
#102=FACE_BOUND('',#78,.T.);
#103=FACE_BOUND('',#79,.T.);
#104=FACE_BOUND('',#80,.T.);
#105=FACE_BOUND('',#81,.T.);
#106=FACE_BOUND('',#82,.T.);
#107=FACE_BOUND('',#83,.T.);
#108=FACE_BOUND('',#84,.T.);
#109=FACE_BOUND('',#85,.T.);
#110=FACE_BOUND('',#86,.T.);
#111=FACE_BOUND('',#87,.T.);
#112=FACE_BOUND('',#88,.T.);
#113=FACE_BOUND('',#89,.T.);
#114=FACE_BOUND('',#90,.T.);
#115=FACE_BOUND('',#91,.T.);
#116=FACE_BOUND('',#92,.T.);
#117=FACE_BOUND('',#93,.T.);
#118=FACE_BOUND('',#94,.T.);
#119=FACE_BOUND('',#95,.T.);
#120=FACE_BOUND('',#96,.T.);
#121=FACE_BOUND('',#97,.T.);
#122=CYLINDRICAL_SURFACE('',#149,0.0016);
#123=CYLINDRICAL_SURFACE('',#152,0.0016);
#124=CYLINDRICAL_SURFACE('',#155,0.0016);
#125=CYLINDRICAL_SURFACE('',#158,0.0016);
#126=CYLINDRICAL_SURFACE('',#161,0.002);
#127=CYLINDRICAL_SURFACE('',#164,0.01625);
#128=ADVANCED_FACE('',(#98,#99),#122,.F.);
#129=ADVANCED_FACE('',(#100,#101),#123,.F.);
#130=ADVANCED_FACE('',(#102,#103),#124,.F.);
#131=ADVANCED_FACE('',(#104,#105),#125,.F.);
#132=ADVANCED_FACE('',(#106,#107),#126,.F.);
#133=ADVANCED_FACE('',(#108,#109),#127,.T.);
#134=ADVANCED_FACE('',(#110,#111,#112,#113,#114,#115),#12,.F.);
#135=ADVANCED_FACE('',(#116,#117,#118,#119,#120,#121),#13,.T.);
#136=CLOSED_SHELL('',(#128,#129,#130,#131,#132,#133,#134,#135));
#137=STYLED_ITEM('',(#138),#145);
#138=PRESENTATION_STYLE_ASSIGNMENT((#139));
#139=SURFACE_STYLE_USAGE(.BOTH.,#140);
#140=SURFACE_SIDE_STYLE('',(#141));
#141=SURFACE_STYLE_FILL_AREA(#142);
#142=FILL_AREA_STYLE('',(#143));
#143=FILL_AREA_STYLE_COLOUR('',#144);
#144=COLOUR_RGB('',0.615686274509804,0.811764705882353,0.929411764705882);
#145=MANIFOLD_SOLID_BREP('Part 1',#136);
#146=SHAPE_DEFINITION_REPRESENTATION(#250,#147);
#147=SHAPE_REPRESENTATION('Part 1',(#148),#245);
#148=AXIS2_PLACEMENT_3D('',#211,#169,#170);
#149=AXIS2_PLACEMENT_3D('',#212,#171,#172);
#150=AXIS2_PLACEMENT_3D('',#213,#173,#174);
#151=AXIS2_PLACEMENT_3D('',#215,#175,#176);
#152=AXIS2_PLACEMENT_3D('',#217,#177,#178);
#153=AXIS2_PLACEMENT_3D('',#218,#179,#180);
#154=AXIS2_PLACEMENT_3D('',#220,#181,#182);
#155=AXIS2_PLACEMENT_3D('',#222,#183,#184);
#156=AXIS2_PLACEMENT_3D('',#223,#185,#186);
#157=AXIS2_PLACEMENT_3D('',#225,#187,#188);
#158=AXIS2_PLACEMENT_3D('',#227,#189,#190);
#159=AXIS2_PLACEMENT_3D('',#228,#191,#192);
#160=AXIS2_PLACEMENT_3D('',#230,#193,#194);
#161=AXIS2_PLACEMENT_3D('',#232,#195,#196);
#162=AXIS2_PLACEMENT_3D('',#233,#197,#198);
#163=AXIS2_PLACEMENT_3D('',#235,#199,#200);
#164=AXIS2_PLACEMENT_3D('',#237,#201,#202);
#165=AXIS2_PLACEMENT_3D('',#238,#203,#204);
#166=AXIS2_PLACEMENT_3D('',#240,#205,#206);
#167=AXIS2_PLACEMENT_3D('',#242,#207,#208);
#168=AXIS2_PLACEMENT_3D('',#243,#209,#210);
#169=DIRECTION('',(0.,0.,1.));
#170=DIRECTION('',(1.,0.,0.));
#171=DIRECTION('',(0.,0.,1.));
#172=DIRECTION('',(1.,0.,0.));
#173=DIRECTION('',(0.,0.,1.));
#174=DIRECTION('',(1.,0.,0.));
#175=DIRECTION('',(0.,0.,1.));
#176=DIRECTION('',(1.,0.,0.));
#177=DIRECTION('',(0.,0.,1.));
#178=DIRECTION('',(1.,0.,0.));
#179=DIRECTION('',(0.,0.,1.));
#180=DIRECTION('',(1.,0.,0.));
#181=DIRECTION('',(0.,0.,1.));
#182=DIRECTION('',(1.,0.,0.));
#183=DIRECTION('',(0.,0.,1.));
#184=DIRECTION('',(1.,0.,0.));
#185=DIRECTION('',(0.,0.,1.));
#186=DIRECTION('',(1.,0.,0.));
#187=DIRECTION('',(0.,0.,1.));
#188=DIRECTION('',(1.,0.,0.));
#189=DIRECTION('',(0.,0.,1.));
#190=DIRECTION('',(1.,0.,0.));
#191=DIRECTION('',(0.,0.,1.));
#192=DIRECTION('',(1.,0.,0.));
#193=DIRECTION('',(0.,0.,1.));
#194=DIRECTION('',(1.,0.,0.));
#195=DIRECTION('',(0.,0.,1.));
#196=DIRECTION('',(1.,0.,0.));
#197=DIRECTION('',(0.,0.,1.));
#198=DIRECTION('',(1.,0.,0.));
#199=DIRECTION('',(0.,0.,1.));
#200=DIRECTION('',(1.,0.,0.));
#201=DIRECTION('',(0.,0.,1.));
#202=DIRECTION('',(1.,0.,0.));
#203=DIRECTION('',(0.,0.,1.));
#204=DIRECTION('',(1.,0.,0.));
#205=DIRECTION('',(0.,0.,1.));
#206=DIRECTION('',(1.,0.,0.));
#207=DIRECTION('',(0.,0.,1.));
#208=DIRECTION('',(1.,0.,0.));
#209=DIRECTION('',(0.,0.,1.));
#210=DIRECTION('',(1.,0.,0.));
#211=CARTESIAN_POINT('',(0.,0.,0.));
#212=CARTESIAN_POINT('',(0.00610940258945177,5.97410548229278E-7,0.0015));
#213=CARTESIAN_POINT('',(0.00610940258945177,5.97410548229278E-7,0.));
#214=CARTESIAN_POINT('',(0.00770940258945177,5.97410548229278E-7,0.));
#215=CARTESIAN_POINT('',(0.00610940258945177,5.97410548229278E-7,0.0015));
#216=CARTESIAN_POINT('',(0.00770940258945177,5.97410548229278E-7,0.0015));
#217=CARTESIAN_POINT('',(-6.50521303491303E-19,-0.00610880517890354,0.0015));
#218=CARTESIAN_POINT('',(-6.50521303491303E-19,-0.00610880517890354,0.));
#219=CARTESIAN_POINT('',(0.0016,-0.00610880517890354,0.));
#220=CARTESIAN_POINT('',(-6.50521303491303E-19,-0.00610880517890354,0.0015));
#221=CARTESIAN_POINT('',(0.0016,-0.00610880517890354,0.0015));
#222=CARTESIAN_POINT('',(-0.00610940258945177,5.97410548229278E-7,0.0015));
#223=CARTESIAN_POINT('',(-0.00610940258945177,5.97410548229278E-7,0.));
#224=CARTESIAN_POINT('',(-0.00450940258945177,5.97410548229278E-7,0.));
#225=CARTESIAN_POINT('',(-0.00610940258945177,5.97410548229278E-7,0.0015));
#226=CARTESIAN_POINT('',(-0.00450940258945177,5.97410548229278E-7,0.0015));
#227=CARTESIAN_POINT('',(0.,0.00611,0.0015));
#228=CARTESIAN_POINT('',(0.,0.00611,0.));
#229=CARTESIAN_POINT('',(0.0016,0.00611,0.));
#230=CARTESIAN_POINT('',(0.,0.00611,0.0015));
#231=CARTESIAN_POINT('',(0.0016,0.00611,0.0015));
#232=CARTESIAN_POINT('',(0.,1.22464679914735E-19,0.0015));
#233=CARTESIAN_POINT('',(0.,1.22464679914735E-19,0.));
#234=CARTESIAN_POINT('',(0.002,1.22464679914735E-19,0.));
#235=CARTESIAN_POINT('',(0.,1.22464679914735E-19,0.0015));
#236=CARTESIAN_POINT('',(0.002,1.22464679914735E-19,0.0015));
#237=CARTESIAN_POINT('',(0.,9.95025524307225E-19,0.0015));
#238=CARTESIAN_POINT('',(0.,9.95025524307225E-19,0.));
#239=CARTESIAN_POINT('',(0.01625,9.95025524307225E-19,0.));
#240=CARTESIAN_POINT('',(0.,9.95025524307225E-19,0.0015));
#241=CARTESIAN_POINT('',(0.01625,9.95025524307225E-19,0.0015));
#242=CARTESIAN_POINT('',(0.,0.,0.));
#243=CARTESIAN_POINT('',(0.,0.,0.0015));
#244=MECHANICAL_DESIGN_GEOMETRIC_PRESENTATION_REPRESENTATION('',(#137),
#245);
#245=(
GEOMETRIC_REPRESENTATION_CONTEXT(3)
GLOBAL_UNCERTAINTY_ASSIGNED_CONTEXT((#246))
GLOBAL_UNIT_ASSIGNED_CONTEXT((#249,#248,#247))
REPRESENTATION_CONTEXT('Part 1','TOP_LEVEL_ASSEMBLY_PART')
);
#246=UNCERTAINTY_MEASURE_WITH_UNIT(LENGTH_MEASURE(1.E-8),#249,
'DISTANCE_ACCURACY_VALUE','Maximum Tolerance applied to model');
#247=(
NAMED_UNIT(*)
SI_UNIT($,.STERADIAN.)
SOLID_ANGLE_UNIT()
);
#248=(
NAMED_UNIT(*)
PLANE_ANGLE_UNIT()
SI_UNIT($,.RADIAN.)
);
#249=(
LENGTH_UNIT()
NAMED_UNIT(*)
SI_UNIT($,.METRE.)
);
#250=PRODUCT_DEFINITION_SHAPE('','',#251);
#251=PRODUCT_DEFINITION('','',#253,#252);
#252=PRODUCT_DEFINITION_CONTEXT('',#259,'design');
#253=PRODUCT_DEFINITION_FORMATION_WITH_SPECIFIED_SOURCE('','',#255,
 .NOT_KNOWN.);
#254=PRODUCT_RELATED_PRODUCT_CATEGORY('','',(#255));
#255=PRODUCT('Part 1','Part 1','Part 1',(#257));
#256=PRODUCT_CATEGORY('','');
#257=PRODUCT_CONTEXT('',#259,'mechanical');
#258=APPLICATION_PROTOCOL_DEFINITION('international standard',
'ap242_managed_model_based_3d_engineering',2020,#259);
#259=APPLICATION_CONTEXT('managed model based 3d engineering');
ENDSEC;
END-ISO-10303-21;
